<svg width="38" height="38" viewBox="0 0 38 38" fill="none" xmlns="http://www.w3.org/2000/svg">
<g clip-path="url(#clip0)">
<path d="M34.8577 0H27.9509C26.2804 0 24.909 1.37141 24.909 3.04193V11.9685H14.9106C13.2898 11.9685 11.9684 13.2899 11.9684 14.9356V24.9341H2.96713C2.57716 24.9329 2.19081 25.0089 1.8303 25.1576C1.46979 25.3063 1.14224 25.5248 0.866483 25.8006C0.590731 26.0763 0.372219 26.4039 0.223516 26.7644C0.0748144 27.1249 -0.00114317 27.5112 1.30029e-05 27.9012V34.8827C1.30029e-05 36.5282 1.32155 37.8499 2.96728 37.8997H34.8827C36.5532 37.8997 37.9246 36.5282 37.9246 34.8577V3.04193C37.8997 1.37156 36.5283 0 34.8577 0Z" fill="url(#paint0_linear)"/>
<path d="M34.8577 0H27.9509C26.2804 0 24.909 1.37141 24.909 3.04193V11.9685H14.9106C13.2898 11.9685 11.9684 13.2899 11.9684 14.9356V24.9341H2.96713C2.57716 24.9329 2.19081 25.0089 1.8303 25.1576C1.46979 25.3063 1.14224 25.5248 0.866483 25.8006C0.590731 26.0763 0.372219 26.4039 0.223516 26.7644C0.0748144 27.1249 -0.00114317 27.5112 1.30029e-05 27.9012V34.8827C1.30029e-05 36.5282 1.32155 37.8499 2.96728 37.8997H34.8827C36.5532 37.8997 37.9246 36.5282 37.9246 34.8577V3.04193C37.8997 1.37156 36.5283 0 34.8577 0Z" fill="url(#paint1_linear)"/>
<mask id="mask0" mask-type="alpha" maskUnits="userSpaceOnUse" x="0" y="0" width="38" height="38">
<path d="M34.8577 0H28.001C26.3303 0 24.9589 1.37141 24.9589 3.04193V11.9685H14.9854C13.3396 11.9685 11.9933 13.3148 11.9933 14.9606V24.9341H2.99205C1.34648 24.9339 0 26.2804 0 27.9261V34.9076C0 36.5532 1.34633 37.8997 2.99205 37.8997H34.8577C36.5282 37.8997 37.8997 36.5282 37.8997 34.8577V3.04193C37.8997 1.37156 36.5282 0 34.8577 0Z" fill="white"/>
</mask>
<g mask="url(#mask0)">
<path d="M34.8576 0H28.0008C26.3302 0 24.9587 1.37141 24.9587 3.04193V37.8997H34.8576C36.5281 37.8997 37.8995 36.5282 37.8995 34.8577V3.04193C37.8995 1.37156 36.5281 0 34.8576 0Z" fill="#F57C00"/>
<g filter="url(#filter0_d)">
<path d="M11.9684 14.9604V24.934H2.99205C1.34648 24.9341 0 26.2806 0 27.9263V34.9078C0 36.5535 1.34633 37.8998 2.99205 37.8998H24.9341V11.9684H14.9604C13.3147 11.9684 11.9684 13.3147 11.9684 14.9604Z" fill="black"/>
</g>
<path d="M11.9684 14.9604V24.934H2.99205C1.34648 24.9341 0 26.2806 0 27.9263V34.9078C0 36.5535 1.34633 37.8998 2.99205 37.8998H24.9341V11.9684H14.9604C13.3147 11.9684 11.9684 13.3147 11.9684 14.9604Z" fill="#FFC107"/>
<path d="M24.9338 11.9684V37.8997H34.8327C36.5032 37.8997 37.8746 36.5283 37.8746 34.8577V24.934L24.9338 11.9684Z" fill="url(#paint2_linear)"/>
<path opacity="0.2" d="M14.9606 12.2176H24.9341V11.9683H14.9606C13.3148 11.9683 11.9685 13.3147 11.9685 14.9605V15.2098C11.9685 13.5641 13.3148 12.2176 14.9606 12.2176Z" fill="white"/>
<path opacity="0.2" d="M2.99205 25.1833H11.9685V24.934H2.99205C1.34648 24.934 0 26.2804 0 27.9262V28.1755C0 26.5298 1.34633 25.1833 2.99205 25.1833Z" fill="white"/>
<path opacity="0.2" d="M34.8576 0H28.0008C26.3302 0 24.9587 1.37141 24.9587 3.04193V3.2913C24.9587 1.62064 26.3303 0.249375 28.0008 0.249375H34.8576C36.5281 0.249375 37.8995 1.62064 37.8995 3.2913V3.04193C37.8995 1.37156 36.5281 0 34.8576 0Z" fill="white"/>
<path opacity="0.2" d="M34.8577 37.6503H2.99205C1.34648 37.6503 0 36.304 0 34.6583V34.9076C0 36.5532 1.34633 37.8997 2.99205 37.8997H34.8328C36.5033 37.8997 37.8747 36.5283 37.8747 34.8578L37.875 34.6084C37.8997 36.2791 36.5282 37.6503 34.8577 37.6503Z" fill="#BF360C"/>
<path d="M34.8577 0H28.001C26.3303 0 24.9589 1.37141 24.9589 3.04193V11.9685H14.9854C13.3396 11.9685 11.9933 13.3148 11.9933 14.9606V24.9341H2.99205C1.34648 24.9339 0 26.2804 0 27.9261V34.9076C0 36.5532 1.34633 37.8997 2.99205 37.8997H34.8577C36.5282 37.8997 37.8997 36.5282 37.8997 34.8577V3.04193C37.8997 1.37156 36.5282 0 34.8577 0Z" fill="url(#paint3_linear)"/>
</g>
</g>
<defs>
<filter id="filter0_d" x="-12" y="1.96838" width="48.9341" height="49.9314" filterUnits="userSpaceOnUse" color-interpolation-filters="sRGB">
<feFlood flood-opacity="0" result="BackgroundImageFix"/>
<feColorMatrix in="SourceAlpha" type="matrix" values="0 0 0 0 0 0 0 0 0 0 0 0 0 0 0 0 0 0 127 0"/>
<feOffset dy="2"/>
<feGaussianBlur stdDeviation="6"/>
<feColorMatrix type="matrix" values="0 0 0 0 0 0 0 0 0 0 0 0 0 0 0 0 0 0 0.2 0"/>
<feBlend mode="normal" in2="BackgroundImageFix" result="effect1_dropShadow"/>
<feBlend mode="normal" in="SourceGraphic" in2="effect1_dropShadow" result="shape"/>
</filter>
<linearGradient id="paint0_linear" x1="0" y1="18.9498" x2="37.8996" y2="18.9498" gradientUnits="userSpaceOnUse">
<stop stop-color="white" stop-opacity="0.1"/>
<stop offset="1" stop-color="white" stop-opacity="0"/>
</linearGradient>
<linearGradient id="paint1_linear" x1="0" y1="18.9498" x2="37.8996" y2="18.9498" gradientUnits="userSpaceOnUse">
<stop stop-color="white" stop-opacity="0.1"/>
<stop offset="1" stop-color="white" stop-opacity="0"/>
</linearGradient>
<linearGradient id="paint2_linear" x1="18.5133" y1="18.5134" x2="40.246" y2="23.9258" gradientUnits="userSpaceOnUse">
<stop stop-color="#BF360C" stop-opacity="0.2"/>
<stop offset="1" stop-color="#BF360C" stop-opacity="0.02"/>
</linearGradient>
<linearGradient id="paint3_linear" x1="12.7078" y1="12.7252" x2="37.2243" y2="37.2417" gradientUnits="userSpaceOnUse">
<stop stop-color="white" stop-opacity="0.1"/>
<stop offset="1" stop-color="white" stop-opacity="0"/>
</linearGradient>
<clipPath id="clip0">
<rect width="38" height="38" fill="white"/>
</clipPath>
</defs>
</svg>
